<?xml version="1.0" encoding="UTF-8"?>
<svg version="1.1" xmlns="http://www.w3.org/2000/svg" width="89" height="91">
<path d="M0 0 C29.37 0 58.74 0 89 0 C89 30.03 89 60.06 89 91 C59.63 91 30.26 91 0 91 C0 60.97 0 30.94 0 0 Z " fill="#219C9C" transform="translate(0,0)"/>
<path d="M0 0 C1.96508789 0.22998047 1.96508789 0.22998047 4 1 C7.40850261 8.26122109 8.93564246 16.27674001 10.83789062 24.0390625 C11.08861328 25.03421875 11.33933594 26.029375 11.59765625 27.0546875 C11.81945557 27.95687012 12.04125488 28.85905273 12.26977539 29.78857422 C12.87335056 32.173172 12.87335056 32.173172 15 34 C15.09796875 33.39671875 15.1959375 32.7934375 15.296875 32.171875 C15.97418623 28.55176323 16.63290488 25.602036 18.5625 22.4375 C22.25882329 20.25761704 25.81168369 20.67782182 30 21 C30 22.32 30 23.64 30 25 C27.36 25 24.72 25 22 25 C21.73445313 26.09699219 21.46890625 27.19398437 21.1953125 28.32421875 C20.83873185 29.77869247 20.4819504 31.23311698 20.125 32.6875 C19.95097656 33.40873047 19.77695312 34.12996094 19.59765625 34.87304688 C18.64902134 38.72028845 17.59509159 42.35715569 16 46 C14.09375 45.69140625 14.09375 45.69140625 12 45 C8.92855063 38.7291242 7.62381306 31.77162608 5.984375 25.01171875 C4.76127181 19.97900884 3.39482009 14.98753851 2 10 C1.82984375 10.74765625 1.6596875 11.4953125 1.484375 12.265625 C1.24203125 13.25046875 0.9996875 14.2353125 0.75 15.25 C0.51796875 16.22453125 0.2859375 17.1990625 0.046875 18.203125 C-1.15284147 21.40833767 -2.27697017 22.93827742 -5 25 C-7.359375 25.390625 -7.359375 25.390625 -9.75 25.25 C-10.54921875 25.21390625 -11.3484375 25.1778125 -12.171875 25.140625 C-12.77515625 25.09421875 -13.3784375 25.0478125 -14 25 C-14 23.68 -14 22.36 -14 21 C-11.36 21 -8.72 21 -6 21 C-5.83564453 20.09121094 -5.83564453 20.09121094 -5.66796875 19.1640625 C-2.51802657 2.51802657 -2.51802657 2.51802657 0 0 Z " fill="#F1F8F8" transform="translate(35,25)"/>
<path d="M0 0 C1.98 0 3.96 0 6 0 C6 1.65 6 3.3 6 5 C3.98079663 3.69593116 1.98075027 2.36176581 0 1 C0 0.67 0 0.34 0 0 Z " fill="#F7FBFB" transform="translate(83,0)"/>
</svg>
